<svg xmlns="http://www.w3.org/2000/svg" version="1.1" xmlns:xlink="http://www.w3.org/1999/xlink"
    xmlns:svgjs="http://svgjs.com/svgjs" width="1536" height="400" preserveAspectRatio="none" viewBox="0 0 1536 400">
    <g mask="url(&quot;#SvgjsMask1068&quot;)" fill="none">
        <rect width="1536" height="400" x="0" y="0" fill="rgba(0, 49, 253, 0)"></rect>
        <path
            d="M1561.5999999999997 400L0 400 L0 179.33Q8.66 111.2, 76.80000000000001 119.86Q134.53 49.59, 204.8 107.31Q264.28 89.99, 281.6 149.47Q328.24 119.31, 358.40000000000003 165.95Q438.93 118.48, 486.40000000000003 199.01Q545.29 129.9, 614.4000000000001 188.79Q626.27 123.86, 691.2 135.73Q738.31 106.04, 768 153.15Q792.32 100.68, 844.8 125Q892.06 95.47, 921.5999999999999 142.73Q970.65 114.98, 998.3999999999999 164.03Q1075.98 113.61, 1126.3999999999999 191.19Q1138.9 126.9, 1203.1999999999998 139.4Q1248.48 107.88, 1279.9999999999998 153.16Q1294.69 91.06, 1356.7999999999997 105.75Q1405.17 77.32, 1433.5999999999997 125.7Q1529.99 94.09, 1561.5999999999997 190.48z"
            fill="rgba(0, 77, 255, 0.08)"></path>
        <path
            d="M1587.2 400L0 400 L0 275.02Q18.65 216.86, 76.80000000000001 235.51Q105.67 187.57, 153.60000000000002 216.44Q175.85 161.88, 230.40000000000003 184.13Q279.33 156.26, 307.20000000000005 205.19Q351.91 173.1, 384.00000000000006 217.81Q432.41 189.42, 460.80000000000007 237.83Q491.99 141.02, 588.8000000000001 172.21Q635.32 141.93, 665.6000000000001 188.44Q741.63 136.47, 793.6000000000001 212.49Q888.2 179.09, 921.6000000000001 273.69Q969.85 193.94, 1049.6000000000001 242.18Q1088.56 153.13, 1177.6000000000001 192.09Q1257.02 143.5, 1305.6000000000001 222.92Q1355.83 196.35, 1382.4 246.57Q1429.34 216.71, 1459.2 263.65Q1498.95 175.39, 1587.2 215.14z"
            fill="rgba(0, 22, 255, 0.08)"></path>
        <path
            d="M1561.5999999999995 400L0 400 L0 324.81Q56.92 253.73, 128 310.64Q212.25 266.89, 256 351.15Q288.38 255.53, 384 287.91Q411.89 239, 460.8 266.89Q552.45 230.55, 588.8 322.2Q618.92 275.52, 665.5999999999999 305.65Q693.33 256.58, 742.3999999999999 284.31Q770.54 235.66, 819.1999999999998 263.8Q851.01 218.82, 895.9999999999998 250.63Q954.58 232.42, 972.7999999999997 291Q1000.65 242.05, 1049.5999999999997 269.9Q1078.45 221.95, 1126.3999999999996 250.8Q1222.71 219.12, 1254.3999999999996 315.43Q1266.8 251.03, 1331.1999999999996 263.43Q1378.91 234.34, 1407.9999999999995 282.05Q1475.28 272.53, 1484.7999999999995 339.81Q1486.38 264.6, 1561.5999999999995 266.18z"
            fill="rgba(1, 10, 255, 0.08)"></path>
        <path
            d="M1587.2 400L0 400 L0 399.05Q76.09 347.14, 128 423.24Q152.01 319.25, 256 343.26Q337.11 296.37, 384 377.47Q431.25 347.93, 460.8 395.18Q468.22 325.79, 537.6 333.21Q609.02 276.63, 665.6 348.05Q727.07 332.72, 742.4000000000001 394.18Q815.58 339.36, 870.4000000000001 412.53Q908.54 322.67, 998.4000000000001 360.81Q1053.14 338.75, 1075.2 393.49Q1156.21 346.5, 1203.2 427.51Q1239.03 335.34, 1331.2 371.17Q1405.42 317.39, 1459.2 391.62Q1535.93 340.35, 1587.2 417.07z"
            fill="rgba(255, 255, 255, 1)"></path>
    </g>
    <defs>
        <mask id="SvgjsMask1068">
            <rect width="1536" height="400" fill="#ffffff"></rect>
        </mask>
    </defs>
</svg>