<svg xmlns="http://www.w3.org/2000/svg" version="1.1" xmlns:xlink="http://www.w3.org/1999/xlink"
    xmlns:svgjs="http://svgjs.com/svgjs" width="411" height="400" preserveAspectRatio="none" viewBox="0 0 411 400">
    <g mask="url(&quot;#SvgjsMask1027&quot;)" fill="none">
        <rect width="411" height="400" x="0" y="0" fill="rgba(255, 255, 255, 0)"></rect>
        <path
            d="M445.25 400L0 400 L0 179.65Q-18.09 127.31, 34.25 109.23Q88.96 143.39, 54.8 198.1Q38.66 161.41, 75.35 145.27Q72.11 107.78, 109.6 104.54Q157.34 118.03, 143.85 165.78Q138.41 139.79, 164.39999999999998 134.36Q169.17 104.89, 198.64999999999998 109.66Q217.49 94.25, 232.89999999999998 113.1Q255.31 114.96, 253.45 137.37Q302.34 152.01, 287.7 200.9Q281.93 160.88, 321.95 155.12Q327.86 126.78, 356.2 132.68Q367.34 109.57, 390.45 120.71Q395.6 105.3, 411 110.45Q433.89 99.09, 445.25 121.99z"
            fill="rgba(0, 77, 255, 0.08)"></path>
        <path
            d="M431.55 400L0 400 L0 178.04Q51.93 209.42, 20.549999999999997 261.36Q8.96 229.23, 41.099999999999994 217.64Q46.03 188.32, 75.35 193.25Q120.68 204.33, 109.6 249.66Q103.81 209.62, 143.85 203.82Q142.87 182.29, 164.39999999999998 181.31Q181.98 164.64, 198.64999999999998 182.23Q231.98 181.31, 232.89999999999998 214.65Q234.98 196.18, 253.45 198.26Q261.5 172.06, 287.7 180.12Q324.75 182.92, 321.95 219.97Q345.76 223.23, 342.5 247.04Q328.25 198.54, 376.75 184.29Q440.96 214.25, 411 278.45Q387.96 234.86, 431.55 211.82z"
            fill="rgba(0, 22, 255, 0.08)"></path>
        <path
            d="M417.8500000000001 400L0 400 L0 305Q-3.12 267.63, 34.25 264.52Q69.52 265.54, 68.5 300.82Q87.2 298.97, 89.05 317.67Q89.24 283.62, 123.3 283.81Q126.15 252.41, 157.55 255.26Q183.42 246.88, 191.8 272.75Q249.37 296.06, 226.05 353.63Q213.12 320.15, 246.60000000000002 307.22Q235.11 275.18, 267.15000000000003 263.68Q316.55 292.52, 287.70000000000005 341.92Q268.44 302.11, 308.25000000000006 282.85Q304.58 258.62, 328.80000000000007 254.95Q354.28 246.17, 363.05000000000007 271.65Q403.25 277.6, 397.30000000000007 317.79Q421.42 321.36, 417.8500000000001 345.47z"
            fill="rgba(1, 10, 255, 0.08)"></path>
        <path
            d="M424.7 400L0 400 L0 356.6Q31.57 367.63, 20.549999999999997 399.2Q-4.06 354.04, 41.099999999999994 329.42Q98.56 352.63, 75.35 410.09Q69.69 383.88, 95.89999999999999 378.21Q97.1 345.16, 130.14999999999998 346.37Q137.7 319.68, 164.39999999999998 327.23Q188.01 316.6, 198.64999999999998 340.21Q227.94 335.25, 232.89999999999998 364.55Q280.52 377.92, 267.15 425.54Q248.55 372.69, 301.4 354.09Q336.42 368.56, 321.95 403.59Q306 353.38, 356.2 337.43Q368.25 315.24, 390.45 327.29Q407.12 309.71, 424.7 326.38z"
            fill="rgba(255, 255, 255, 1)"></path>
    </g>
    <defs>
        <mask id="SvgjsMask1027">
            <rect width="411" height="400" fill="#ffffff"></rect>
        </mask>
    </defs>
</svg>