<svg xmlns="http://www.w3.org/2000/svg" version="1.1" xmlns:xlink="http://www.w3.org/1999/xlink"
    xmlns:svgjs="http://svgjs.com/svgjs" width="1440" height="202" preserveAspectRatio="none" viewBox="0 0 1440 202">
    <g mask="url(&quot;#SvgjsMask1128&quot;)" fill="none">
        <rect width="1440" height="202" x="0" y="0" fill="rgba(255, 255, 255, 1)"></rect>
        <path d="M 0,84 C 96,71.2 288,20.2 480,20 C 672,19.8 768,86 960,83 C 1152,80 1344,20.6 1440,5L1440 202L0 202z"
            fill="rgba(196, 181, 0, 0.08)"></path>
        <path
            d="M 0,126 C 57.6,132.4 172.8,156.6 288,158 C 403.2,159.4 460.8,128.8 576,133 C 691.2,137.2 748.8,178.4 864,179 C 979.2,179.6 1036.8,137.2 1152,136 C 1267.2,134.8 1382.4,165.6 1440,173L1440 202L0 202z"
            fill="rgba(235, 203, 0, 0.08)"></path>
    </g>
    <defs>
        <mask id="SvgjsMask1128">
            <rect width="1440" height="202" fill="#ffffff"></rect>
        </mask>
    </defs>
</svg>