<svg fill="none" height="57" width="57" xmlns="http://www.w3.org/2000/svg">
    <path
        d="M32.975 47.753a67.78 67.78 0 0 1-2.749 1.636c-.353.198-.71.391-1.068.58l-.002.002-.002.001a1.73 1.73 0 0 1-1.58 0 38.165 38.165 0 0 1-1.073-.584 67.78 67.78 0 0 1-2.749-1.635c-2.265-1.418-5.292-3.483-8.329-6.068-5.967-5.08-12.427-12.556-12.427-21.362 0-7.983 6.524-13.868 13.229-13.868 5.289 0 9.557 2.828 12.138 7.16 2.581-4.332 6.85-7.16 12.139-7.16 6.705 0 13.23 5.885 13.23 13.868 0 8.806-6.461 16.282-12.428 21.362-3.037 2.585-6.065 4.65-8.33 6.068z"
        fill="#ea4aaa" />
</svg>