<svg xmlns="http://www.w3.org/2000/svg" version="1.1" xmlns:xlink="http://www.w3.org/1999/xlink"
    xmlns:svgjs="http://svgjs.com/svgjs" width="411" height="370" preserveAspectRatio="none" viewBox="0 0 411 370">
    <g mask="url(&quot;#SvgjsMask1086&quot;)" fill="none">
        <rect width="411" height="370" x="0" y="0" fill="rgba(255, 255, 255, 0)"></rect>
        <path
            d="M -239.13714555152524,109 C -197.94,140.6 -115.54,252 -33.137145551525236,267 C 49.26,282 90.46,196.2 172.86285444847476,184 C 255.26,171.8 331.24,212.4 378.86285444847476,206 C 426.49,199.6 404.57,162.8 411,152"
            stroke="rgba(179, 191, 51, 0.08)" stroke-width="6"></path>
        <path
            d="M -359.9975566188275,236 C -318.8,202.4 -236.4,49.8 -153.9975566188275,68 C -71.6,86.2 -30.4,324.4 52.0024433811725,327 C 134.4,329.6 186.2,79 258.0024433811725,81 C 329.8,83 380.4,285.8 411,337"
            stroke="rgba(57, 51, 191, 0.08)" stroke-width="6"></path>
        <path
            d="M -69.32777832283529,285 C -28.13,257.2 54.27,155.8 136.6722216771647,146 C 219.07,136.2 260.27,235.8 342.6722216771647,236 C 425.07,236.2 535.01,151.8 548.6722216771648,147 C 562.34,142.2 438.53,199 411,212"
            stroke="rgba(113, 191, 51, 0.08)" stroke-width="6"></path>
        <path
            d="M -51.652749327442905,122 C -10.45,146.2 71.95,246 154.3472506725571,243 C 236.75,240 277.95,111.2 360.3472506725571,107 C 442.75,102.8 556.22,241.2 566.347250672557,222 C 576.48,202.8 442.07,53.2 411,11"
            stroke="rgba(194, 59, 51, 0.08)" stroke-width="6"></path>
    </g>
    <defs>
        <mask id="SvgjsMask1086">
            <rect width="411" height="370" fill="#ffffff"></rect>
        </mask>
    </defs>
</svg>