<svg xmlns="http://www.w3.org/2000/svg" version="1.1" xmlns:xlink="http://www.w3.org/1999/xlink"
    xmlns:svgjs="http://svgjs.com/svgjs" width="1536" height="430" preserveAspectRatio="none" viewBox="0 0 1536 430">
    <g mask="url(&quot;#SvgjsMask1114&quot;)" fill="none">
        <path d="M43 430L473 0L752 0L322 430z" fill="url(#SvgjsLinearGradient1115)"></path>
        <path d="M265.44 430L695.44 0L938.44 0L508.44 430z" fill="url(#SvgjsLinearGradient1115)"></path>
        <path d="M553.88 430L983.88 0L1135.38 0L705.38 430z" fill="url(#SvgjsLinearGradient1115)"></path>
        <path d="M795.3199999999999 430L1225.32 0L1561.32 0L1131.32 430z" fill="url(#SvgjsLinearGradient1115)"></path>
        <path d="M1492 430L1062 0L961.5 0L1391.5 430z" fill="url(#SvgjsLinearGradient1116)"></path>
        <path d="M1260.56 430L830.56 0L683.56 0L1113.56 430z" fill="url(#SvgjsLinearGradient1116)"></path>
        <path d="M998.12 430L568.12 0L380.62 0L810.62 430z" fill="url(#SvgjsLinearGradient1116)"></path>
        <path d="M756.6800000000001 430L326.68000000000006 0L-42.319999999999936 0L387.68000000000006 430z"
            fill="url(#SvgjsLinearGradient1116)"></path>
        <path d="M1228.9251888768658 430L1536 122.92518887686583L1536 430z" fill="url(#SvgjsLinearGradient1115)"></path>
        <path d="M0 430L307.07481112313417 430L 0 122.92518887686583z" fill="url(#SvgjsLinearGradient1116)"></path>
    </g>
    <defs>
        <mask id="SvgjsMask1114">
            <rect width="1536" height="430" fill="#ffffff"></rect>
        </mask>
        <linearGradient x1="0%" y1="100%" x2="100%" y2="0%" id="SvgjsLinearGradient1115">
            <stop stop-color="rgba(234, 74, 170, 0.08)" offset="0"></stop>
            <stop stop-opacity="0" stop-color="rgba(234, 74, 170, 0.08)" offset="0.66"></stop>
        </linearGradient>
        <linearGradient x1="100%" y1="100%" x2="0%" y2="0%" id="SvgjsLinearGradient1116">
            <stop stop-color="rgba(234, 74, 170, 0.08)" offset="0"></stop>
            <stop stop-opacity="0" stop-color="rgba(234, 74, 170, 0.08)" offset="0.66"></stop>
        </linearGradient>
    </defs>
</svg>