<svg xmlns="http://www.w3.org/2000/svg" version="1.1" xmlns:xlink="http://www.w3.org/1999/xlink"
    xmlns:svgjs="http://svgjs.com/svgjs" width="1536" height="638" preserveAspectRatio="none" viewBox="0 0 1536 638">
    <g mask="url(&quot;#SvgjsMask1151&quot;)" fill="none">
        <rect width="1536" height="638" x="0" y="0" fill="rgba(14, 42, 71, 0)"></rect>
        <path
            d="M -298.2968209163022,43 C -195.9,151.4 8.9,571 213.70317908369782,585 C 418.5,599 520.9,107.4 725.7031790836978,113 C 930.5,118.6 1032.9,584.6 1237.7031790836977,613 C 1442.5,641.4 1690.04,270.2 1749.7031790836977,255 C 1809.36,239.8 1578.74,480.6 1536,537"
            stroke="rgba(179, 191, 51, 0.08)" stroke-width="6"></path>
        <path
            d="M -433.29849531844104,338 C -330.9,289 -126.1,85.4 78.70150468155896,93 C 283.5,100.6 385.9,386.2 590.701504681559,376 C 795.5,365.8 897.9,19.6 1102.701504681559,42 C 1307.5,64.4 1528.04,463 1614.701504681559,488 C 1701.36,513 1551.74,231.2 1536,167"
            stroke="rgba(57, 51, 191, 0.08)" stroke-width="6"></path>
        <path
            d="M -234.25770815443263,90 C -131.86,154.4 72.94,422.8 277.74229184556737,412 C 482.54,401.2 584.94,29.8 789.7422918455674,36 C 994.54,42.2 1096.94,388 1301.7422918455673,443 C 1506.54,498 1766.89,283.8 1813.7422918455673,311 C 1860.59,338.2 1591.55,525.4 1536,579"
            stroke="rgba(113, 191, 51, 0.08)" stroke-width="6"></path>
        <path
            d="M -923.1091184869496,121 C -820.71,193 -615.91,463.2 -411.10911848694957,481 C -206.31,498.8 -103.91,203 100.89088151305043,210 C 305.69,217 408.09,545 612.8908815130504,516 C 817.69,487 940.27,69.4 1124.8908815130503,65 C 1309.51,60.6 1453.78,408.2 1536,494"
            stroke="rgba(194, 59, 51, 0.08)" stroke-width="6"></path>
    </g>
    <defs>
        <mask id="SvgjsMask1151">
            <rect width="1536" height="638" fill="#ffffff"></rect>
        </mask>
    </defs>
</svg>