<svg xmlns="http://www.w3.org/2000/svg" version="1.1" xmlns:xlink="http://www.w3.org/1999/xlink"
    xmlns:svgjs="http://svgjs.com/svgjs" width="1536" height="202" preserveAspectRatio="none" viewBox="0 0 1536 202">
    <g mask="url(&quot;#SvgjsMask1010&quot;)" fill="none">
        <rect width="1536" height="202" x="0" y="0" fill="rgba(255, 255, 255, 1)"></rect>
        <path
            d="M 0,66 C 102.4,61.2 307.2,38.4 512,42 C 716.8,45.6 819.2,92.4 1024,84 C 1228.8,75.6 1433.6,16.8 1536,0L1536 202L0 202z"
            fill="rgba(196, 181, 0, 0.08)"></path>
        <path
            d="M 0,165 C 61.6,153.8 184.8,102 308,109 C 431.2,116 492.8,197.4 616,200 C 739.2,202.6 800.8,131.6 924,122 C 1047.2,112.4 1109.6,147 1232,152 C 1354.4,157 1475.2,148 1536,147L1536 202L0 202z"
            fill="rgba(235, 203, 0, 0.08)"></path>
    </g>
    <defs>
        <mask id="SvgjsMask1010">
            <rect width="1536" height="202" fill="#ffffff"></rect>
        </mask>
    </defs>
</svg>