<svg xmlns="http://www.w3.org/2000/svg" version="1.1" xmlns:xlink="http://www.w3.org/1999/xlink"
    xmlns:svgjs="http://svgjs.com/svgjs" width="1024" height="202" preserveAspectRatio="none" viewBox="0 0 1024 202">
    <g mask="url(&quot;#SvgjsMask1110&quot;)" fill="none">
        <rect width="1024" height="202" x="0" y="0" fill="rgba(255, 255, 255, 1)"></rect>
        <path
            d="M 0,101 C 68.4,82 205.2,12 342,6 C 478.8,0 547.6,71.4 684,71 C 820.4,70.6 956,17.4 1024,4L1024 202L0 202z"
            fill="rgba(196, 181, 0, 0.08)"></path>
        <path
            d="M 0,146 C 41,153 123,182.8 205,181 C 287,179.2 328,135.2 410,137 C 492,138.8 533,193 615,190 C 697,187 738.2,123.6 820,122 C 901.8,120.4 983.2,170 1024,182L1024 202L0 202z"
            fill="rgba(235, 203, 0, 0.08)"></path>
    </g>
    <defs>
        <mask id="SvgjsMask1110">
            <rect width="1024" height="202" fill="#ffffff"></rect>
        </mask>
    </defs>
</svg>